<?xml version="1.0" encoding="UTF-8" standalone="no"?>
<!-- Created with Inkscape (http://www.inkscape.org/) -->

<svg
   version="1.1"
   id="svg2"
   width="170.66667"
   height="170.66667"
   viewBox="0 0 170.66667 170.66667"
   xmlns="http://www.w3.org/2000/svg"
   xmlns:svg="http://www.w3.org/2000/svg">
  <defs
     id="defs6" />
  <g
     id="g8">
    <g
       id="g27707"
       transform="translate(1.3440548,0.20938188)">
      <path
         style="fill:#9e416e;fill-opacity:1;stroke:none;stroke-width:4;stroke-linecap:butt;stroke-linejoin:miter;stroke-miterlimit:4;stroke-dasharray:none;stroke-opacity:1"
         d="m 63.26962,17.082068 54.57861,0.17506 c 4.41102,0.23356 5.89249,1.15093 8.27397,4.44831 l 29.73572,50.38063 c 2.9209,5.65871 -3.63293,11.36887 -8.88725,8.31932 L 58.915,30.335728 c -5.07907,-2.83088 -5.08201,-12.87736 4.35462,-13.25366 z"
         id="path17854" />
      <path
         style="fill:#9e416e;fill-opacity:1;stroke:none;stroke-width:4;stroke-linecap:butt;stroke-linejoin:miter;stroke-miterlimit:4;stroke-dasharray:none;stroke-opacity:1"
         d="m 155.33585,101.33275 -27.86503,46.92969 c -2.44106,3.68142 -3.98363,4.49185 -8.03355,4.8691 l -58.50145,0.0343 c -6.35809,-0.35711 -7.94935,-8.90266 -2.65415,-11.88065 l 87.84759,-50.433884 c 5.01783,-2.938055 13.67419,2.160873 9.20659,10.481444 z"
         id="path17856" />
      <path
         style="fill:#9e416e;fill-opacity:1;stroke:none;stroke-width:4;stroke-linecap:butt;stroke-linejoin:miter;stroke-miterlimit:4;stroke-dasharray:none;stroke-opacity:1"
         d="M 40.25251,32.598264 12.93719,79.850033 c -2.018,3.929279 -1.97081,5.671147 -0.31989,9.388485 l 28.57157,51.049852 c 3.41998,5.37181 11.65258,2.582 11.66156,-3.49316 L 53.89701,35.505135 c 0.10975,-5.813671 -8.57036,-10.872076 -13.6445,-2.906871 z"
         id="path17858" />
    </g>
  </g>
</svg>
